# xmcd
#
# Track frame offsets:
#	150
#	20445
#	39707
#	66258
#	86470
#	107897
#	127894
#	146513
#	161866
#
# Disc length: 2368 seconds
#
# Revision: 0
# Processed by: cddbd v1.4PL0 Copyright (c) Steve Scherf et al.
# Submitted via: dBpowerAMP V4.0
#
DISCID=78093e09
DTITLE=Geno Washington - The Return of the G
DYEAR=1900
DGENRE=Blues
TTITLE0=Geno Washington/Memicelfandi
TTITLE1=Geno Washington/Walkin with the gods
TTITLE2=Geno Washington/Genie in a bottle
TTITLE3=Geno Washington/Paradise jam
TTITLE4=Geno Washington/Blues master
TTITLE5=Geno Washington/Feel alright
TTITLE6=Geno Washington/Dr Superlove
TTITLE7=Geno Washington/Chill it up
TTITLE8=Geno Washington/Spot on my rocket
EXTD=
EXTT0=
EXTT1=
EXTT2=
EXTT3=
EXTT4=
EXTT5=
EXTT6=
EXTT7=
EXTT8=
PLAYORDER=
